<?xml version="1.0" standalone="no"?>
<!DOCTYPE svg PUBLIC "-//W3C//DTD SVG 20010904//EN"
 "http://www.w3.org/TR/2001/REC-SVG-20010904/DTD/svg10.dtd">
<svg version="1.0" xmlns="http://www.w3.org/2000/svg"
 width="512.000000pt" height="512.000000pt" viewBox="0 0 512.000000 512.000000"
 preserveAspectRatio="xMidYMid meet">
<metadata>
Created by potrace 1.14, written by Peter Selinger 2001-2017
</metadata>
<g transform="translate(0.000000,512.000000) scale(0.100000,-0.100000)"
fill="#000000" stroke="none">
<path d="M4289 5116 c-2 -2 -24 -6 -49 -9 -25 -3 -76 -15 -115 -27 -301 -94
-538 -349 -591 -638 -3 -12 -20 -70 -40 -129 -58 -178 -158 -371 -261 -505
-38 -49 -47 -56 -66 -49 -12 5 -44 12 -72 16 -27 5 -57 10 -65 11 -95 18 -302
24 -433 13 -476 -42 -1040 -309 -1466 -694 -484 -437 -724 -927 -722 -1475 1
-80 3 -157 6 -173 3 -15 0 -37 -6 -48 -21 -40 -142 -174 -265 -295 -68 -66
-128 -134 -134 -150 -15 -37 -4 -110 21 -145 26 -37 76 -60 164 -75 17 -3 48
-9 70 -13 42 -8 245 -6 280 3 83 20 118 26 122 22 14 -14 -89 -279 -175 -449
-63 -126 -69 -160 -39 -218 35 -68 65 -84 155 -83 320 5 651 229 795 536 26
57 70 201 81 269 6 33 9 36 41 37 162 6 470 89 693 185 l82 36 1 -77 c2 -242
6 -277 30 -315 27 -41 80 -69 131 -69 107 0 424 240 572 432 l31 41 5 -153 c5
-162 9 -174 60 -223 27 -26 38 -30 93 -30 56 0 69 4 131 42 37 24 70 43 72 43
3 0 10 4 17 10 7 5 57 45 112 88 198 157 334 335 436 571 38 89 81 230 94 306
4 22 8 51 11 65 16 95 21 168 19 288 -2 136 -6 180 -25 277 -6 28 -12 59 -14
70 -40 210 -188 574 -326 801 l-37 62 18 38 c10 22 18 46 19 56 0 33 358 197
628 289 233 79 322 132 470 279 122 123 214 277 251 422 27 106 22 243 -11
325 -79 189 -246 324 -476 384 -69 18 -310 37 -323 25z"/>
</g>
</svg>
